<svg width="60" height="60" viewBox="0 0 60 60" fill="none" xmlns="http://www.w3.org/2000/svg">
<path d="M48.3141 7.61344C47.6363 6.93563 46.7353 6.5625 45.7772 6.5625C43.7972 6.5625 42.1875 8.17313 42.1875 10.1513C42.1875 11.1103 42.5606 12.0113 43.2394 12.6891L47.3109 16.7616C47.9887 17.4394 48.8897 17.8125 49.8478 17.8125C51.8278 17.8125 53.4375 16.2019 53.4375 14.2238C53.4375 13.2647 53.0644 12.3637 52.3856 11.6859L48.3141 7.61344ZM49.8478 15.9375C49.3903 15.9375 48.9591 15.7594 48.6356 15.4359L44.5641 11.3634C44.2453 11.0438 44.0625 10.6031 44.0625 10.1513C44.0625 9.20625 44.8312 8.4375 45.7772 8.4375C46.2347 8.4375 46.6659 8.61562 46.9894 8.93906L51.0609 13.0116C51.3797 13.3312 51.5625 13.7719 51.5625 14.2238C51.5625 15.1687 50.7938 15.9375 49.8478 15.9375Z" fill="#BD222C"/>
<path d="M56.6522 10.3266L49.6744 3.34875C48.1191 1.79344 46.0528 0.9375 43.8544 0.9375C39.3169 0.9375 35.625 4.62937 35.625 9.16687V18.3619L29.1478 24.8391C27.8541 24.0788 26.4797 23.49 25.0416 23.1L24.1641 19.6875H17.085L16.2075 23.1009C14.8228 23.4759 13.4934 24.0272 12.2428 24.7463L9.20625 22.95L4.20094 27.9572L5.99625 30.9928C5.27812 32.2425 4.72687 33.5709 4.35094 34.9575L0.9375 35.8359V42.915L4.35094 43.7925C4.72594 45.1791 5.27812 46.5075 5.99625 47.7572L4.20094 50.7928L9.20625 55.8L12.2428 54.0047C13.4944 54.7238 14.8238 55.2741 16.2075 55.65L17.0859 59.0625H24.165L25.0425 55.6491C26.4272 55.2741 27.7566 54.7228 29.0072 54.0037L32.0438 55.7991L37.0491 50.7919L35.2537 47.7562C35.9719 46.5066 36.5231 45.1781 36.8991 43.7916L40.3125 42.9141V35.835L36.8991 34.9575C36.5091 33.5175 35.9203 32.1431 35.1609 30.8522L41.6381 24.375H50.8331C55.3706 24.375 59.0625 20.6831 59.0625 16.1456C59.0625 13.9472 58.2066 11.8809 56.6522 10.3266ZM31.875 39.375C31.875 45.5784 26.8284 50.625 20.625 50.625C14.4216 50.625 9.375 45.5784 9.375 39.375C9.375 33.1716 14.4216 28.125 20.625 28.125C22.1194 28.125 23.5988 28.4363 24.9731 29.0138L14.0606 39.9263L14.0841 45.9159L20.0738 45.9394L20.625 45.3881L23.4375 48.2006L25.9753 45.6628L24.6497 44.3372L23.4375 45.5494L21.9506 44.0625L26.25 39.7631L27.7369 41.25L26.5247 42.4622L27.8503 43.7878L30.3881 41.25L27.5756 38.4375L30.9862 35.0269C31.5647 36.4012 31.875 37.8806 31.875 39.375ZM32.6184 26.0559L15.9469 42.7275L15.9384 40.6987L33.1444 23.4937C33.4847 24.3497 33.3103 25.365 32.6184 26.0559ZM19.3003 44.0606L17.2725 44.0531L33.9431 27.3816C35.3728 25.9519 35.5622 23.7525 34.5272 22.11L36.5616 20.0756L39.9244 23.4375L19.3003 44.0606ZM35.2144 35.9419L35.3438 36.4941L38.4375 37.29V41.4609L35.3438 42.2569L35.2144 42.8091C34.845 44.3831 34.2234 45.8803 33.3675 47.2603L33.0684 47.7431L34.6959 50.4975L31.7466 53.4469L28.9931 51.8203L28.5103 52.1194C27.1266 52.9763 25.6294 53.5978 24.0581 53.9662L23.505 54.0956L22.7109 57.1875H18.54L17.745 54.0928L17.1919 53.9634C15.6206 53.595 14.1234 52.9734 12.7397 52.1166L12.2569 51.8175L9.50344 53.4441L6.55406 50.4947L8.18156 47.7403L7.88344 47.2594C7.02656 45.8794 6.40594 44.3822 6.03656 42.8081L5.90625 42.2559L2.8125 41.4609V37.29L5.90625 36.4941L6.03562 35.9419C6.405 34.3678 7.02656 32.8706 7.8825 31.4906L8.18156 31.0078L6.55406 28.2534L9.50344 25.3041L12.2569 26.9306L12.7397 26.6316C14.1234 25.7747 15.6206 25.1531 17.1919 24.7847L17.745 24.6553L18.5391 21.5625H22.71L23.505 24.6572L24.0581 24.7866C25.3547 25.0903 26.5978 25.5769 27.7716 26.2153L26.3934 27.5934C24.6009 26.715 22.6228 26.25 20.625 26.25C13.3875 26.25 7.5 32.1375 7.5 39.375C7.5 46.6125 13.3875 52.5 20.625 52.5C27.8625 52.5 33.75 46.6125 33.75 39.375C33.75 37.3772 33.2859 35.3991 32.4066 33.6066L33.7847 32.2284C34.4231 33.4003 34.9087 34.6425 35.2144 35.9419ZM50.8331 22.5H41.6381L37.5 18.3619V9.16687C37.5 5.66344 40.3509 2.8125 43.8544 2.8125C45.5522 2.8125 47.1478 3.47344 48.3478 4.67344L55.3256 11.6513C56.5256 12.8513 57.1866 14.4469 57.1866 16.1447C57.1875 19.6491 54.3366 22.5 50.8331 22.5Z" fill="#BD222C"/>
<path d="M40.3125 17.8125C40.8303 17.8125 41.25 17.3928 41.25 16.875C41.25 16.3572 40.8303 15.9375 40.3125 15.9375C39.7947 15.9375 39.375 16.3572 39.375 16.875C39.375 17.3928 39.7947 17.8125 40.3125 17.8125Z" fill="#BD222C"/>
<path d="M43.125 20.625C43.6428 20.625 44.0625 20.2053 44.0625 19.6875C44.0625 19.1697 43.6428 18.75 43.125 18.75C42.6072 18.75 42.1875 19.1697 42.1875 19.6875C42.1875 20.2053 42.6072 20.625 43.125 20.625Z" fill="#BD222C"/>
<path d="M20.6249 31.875V30C17.4899 30 14.5752 31.5572 12.8296 34.1653L14.3877 35.2087C15.7846 33.1209 18.1171 31.875 20.6249 31.875Z" fill="#BD222C"/>
<path d="M11.4824 37.2919L13.3105 37.7072C13.4418 37.1297 13.6415 36.5691 13.904 36.0422L12.2249 35.2069C11.8959 35.8678 11.6465 36.57 11.4824 37.2919Z" fill="#BD222C"/>
</svg>
