<svg width="60" height="60" viewBox="0 0 60 60" fill="none" xmlns="http://www.w3.org/2000/svg">
<path d="M30.419 0.197938L30 0L29.581 0.2C21.1432 4.19843 11.9685 6.27513 2.682 6.28866H0V12.701C0.00830205 22.6566 2.80519 32.3979 8.05453 40.7542C13.3039 49.1105 20.7823 55.7262 29.591 59.8062L30 60L30.409 59.8103C39.2183 55.73 46.6972 49.1137 51.9466 40.7566C57.1959 32.3995 59.9925 22.6573 60 12.701V6.28866H57.318C48.0313 6.27449 38.8567 4.19708 30.419 0.197938ZM58 12.701C57.9915 22.1799 55.35 31.458 50.3881 39.4381C45.4261 47.4181 38.3512 53.7664 30 57.732C21.6488 53.7664 14.5739 47.4181 9.61192 39.4381C4.64995 31.458 2.00852 22.1799 2 12.701V8.35052H2.682C12.1026 8.3359 21.4132 6.26285 30 2.26804C38.5868 6.26285 47.8974 8.3359 57.318 8.35052H58V12.701Z" fill="#BD222C"/>
<path d="M37 15.567V13.5051H9V36.1855H13.142C13.3603 37.0696 13.8581 37.8536 14.5567 38.4135C15.2554 38.9734 16.1151 39.2774 17 39.2774C17.8849 39.2774 18.7446 38.9734 19.4433 38.4135C20.1419 37.8536 20.6397 37.0696 20.858 36.1855H39.142C39.3603 37.0696 39.8581 37.8536 40.5567 38.4135C41.2554 38.9734 42.1151 39.2774 43 39.2774C43.8849 39.2774 44.7446 38.9734 45.4433 38.4135C46.1419 37.8536 46.6397 37.0696 46.858 36.1855H48C48.7957 36.1855 49.5587 35.8597 50.1213 35.2797C50.6839 34.6997 51 33.913 51 33.0928V24.502L44.5 15.567H37ZM48 23.8144H41V17.6288H43.5L48 23.8144ZM17 37.2165C16.6044 37.2165 16.2178 37.0955 15.8889 36.869C15.56 36.6424 15.3036 36.3204 15.1522 35.9436C15.0009 35.5669 14.9613 35.1523 15.0384 34.7524C15.1156 34.3524 15.3061 33.985 15.5858 33.6967C15.8655 33.4083 16.2219 33.2119 16.6098 33.1324C16.9978 33.0528 17.3999 33.0936 17.7654 33.2497C18.1308 33.4058 18.4432 33.67 18.6629 34.0091C18.8827 34.3482 19 34.7468 19 35.1546C19 35.7015 18.7893 36.2259 18.4142 36.6126C18.0391 36.9992 17.5304 37.2165 17 37.2165ZM35 34.1237H20.858C20.6397 33.2396 20.1419 32.4556 19.4433 31.8957C18.7446 31.3358 17.8849 31.0319 17 31.0319C16.1151 31.0319 15.2554 31.3358 14.5567 31.8957C13.8581 32.4556 13.3603 33.2396 13.142 34.1237H11V15.567H35V34.1237ZM43 37.2165C42.6044 37.2165 42.2178 37.0955 41.8889 36.869C41.56 36.6424 41.3036 36.3204 41.1522 35.9436C41.0009 35.5669 40.9613 35.1523 41.0384 34.7524C41.1156 34.3524 41.3061 33.985 41.5858 33.6967C41.8655 33.4083 42.2219 33.2119 42.6098 33.1324C42.9978 33.0528 43.3999 33.0936 43.7654 33.2497C44.1308 33.4058 44.4432 33.67 44.6629 34.0091C44.8827 34.3482 45 34.7468 45 35.1546C45 35.7015 44.7893 36.2259 44.4142 36.6126C44.0391 36.9992 43.5304 37.2165 43 37.2165ZM48 34.1237H46.858C46.6397 33.2396 46.1419 32.4556 45.4433 31.8957C44.7446 31.3358 43.8849 31.0319 43 31.0319C42.1151 31.0319 41.2554 31.3358 40.5567 31.8957C39.8581 32.4556 39.3603 33.2396 39.142 34.1237H37V17.6288H39V25.8763H49V33.0928C49 33.3662 48.8946 33.6284 48.7071 33.8217C48.5196 34.0151 48.2652 34.1237 48 34.1237Z" fill="#BD222C"/>
<path d="M31.4141 21.7527L27.0001 17.2021L22.0001 22.3568L20.0001 20.2949L15.5861 24.8454L22.0001 31.4578L31.4141 21.7527ZM20.0001 23.2104L22.0001 25.2723L27.0001 20.1176L28.5861 21.7527L22.0001 28.5424L18.4141 24.8454L20.0001 23.2104Z" fill="#BD222C"/>
</svg>
