<svg width="63" height="60" viewBox="0 0 63 60" fill="none" xmlns="http://www.w3.org/2000/svg">
<path d="M22.4406 18.5092V16.5608C17.9679 16.5608 14.3287 20.0571 14.3287 24.3542H16.3567C16.3567 21.1307 19.0853 18.5092 22.4406 18.5092Z" fill="#BD222C"/>
<path d="M59.958 0H35.6224C33.9452 0 32.5804 1.31123 32.5804 2.9225V5.34818C30.953 4.78609 29.1521 4.92052 27.6352 5.72616C26.5594 4.01065 24.6084 2.9225 22.3898 2.9225C20.2554 2.9225 18.3187 4.01065 17.2449 5.72714C15.4207 4.75492 13.1788 4.7442 11.3313 5.76902L11.2421 5.81871C9.39459 6.84353 8.28427 8.71588 8.24675 10.7178C6.16301 10.7538 4.21413 11.8206 3.14741 13.5955L3.0957 13.6812C2.02899 15.4562 2.04318 17.611 3.0521 19.3626C1.26546 20.3952 0.132832 22.2549 0.132832 24.3045V24.4029C0.132832 26.4535 1.26546 28.3142 3.0521 29.3458C2.04217 31.0974 2.02899 33.2513 3.0957 35.0272L3.14741 35.1129C4.21514 36.8879 6.16402 37.9546 8.24675 37.9906C8.25791 38.5868 8.37553 39.1674 8.56717 39.7217L0 53.1535L9.53452 50.8633L11.9123 59.999L20.877 45.5852C21.3921 45.7167 21.9325 45.7859 22.4912 45.7859C23.0124 45.7859 23.5214 45.7187 24.0102 45.5959L32.9688 60L35.3466 50.8643L44.8811 53.1545L36.3139 39.7227C36.5066 39.1684 36.6232 38.5878 36.6343 37.9916C38.7191 37.9555 40.668 36.8888 41.7337 35.1139L41.7854 35.0282C42.8531 33.2532 42.8389 31.0984 41.829 29.3468C43.3317 28.4779 44.3619 27.0156 44.655 25.3293H59.958C61.6352 25.3293 63 24.0181 63 22.4068V2.9225C63 1.31123 61.6352 0 59.958 0ZM48.8042 3.89667V5.84501H46.7762V3.89667H44.7482V5.84501H42.7203V1.94834H52.8601V5.84501H50.8322V3.89667H48.8042ZM32.5804 17.9062C30.3993 14.7509 26.6709 12.6642 22.4405 12.6642C15.731 12.6642 10.2727 17.9081 10.2727 24.3542C10.2727 30.8003 15.731 36.0442 22.4405 36.0442C28.8753 36.0442 34.145 31.2182 34.5668 25.1365C34.8974 25.2543 35.2502 25.3284 35.6224 25.3284H36.5846C36.0614 32.394 29.9258 37.9926 22.4405 37.9926C14.6126 37.9926 8.24472 31.8748 8.24472 24.3542C8.24472 16.8336 14.6126 10.7159 22.4405 10.7159C26.2511 10.7159 29.9197 12.218 32.5804 14.8298V17.9062ZM32.5804 24.3542C32.5804 29.7258 28.0317 34.0959 22.4405 34.0959C16.8494 34.0959 12.3007 29.7258 12.3007 24.3542C12.3007 18.9826 16.8494 14.6125 22.4405 14.6125C28.0317 14.6125 32.5804 18.9826 32.5804 24.3542ZM12.689 54.9519L11.0109 48.5009L4.32161 50.1073L9.71196 41.6564C10.1419 42.1367 10.6499 42.5604 11.2431 42.8897L11.3323 42.9394C13.1798 43.9632 15.4238 43.9506 17.2469 42.9813C17.6981 43.7012 18.3106 44.3022 19.0254 44.7669L12.689 54.9519ZM40.5595 50.1083L33.8702 48.5019L32.192 54.9528L25.8607 44.7747C26.5705 44.3091 27.183 43.7061 27.6362 42.9823C29.4594 43.9516 31.7013 43.9642 33.5498 42.9404L33.639 42.8907C34.2322 42.5614 34.7402 42.1376 35.1701 41.6574L40.5595 50.1083ZM39.9845 28.0297L38.5386 28.4973L39.5475 29.5972C40.6893 30.8412 40.8819 32.6317 40.0291 34.0521L39.9774 34.1378C39.1237 35.5571 37.4202 36.2946 35.7207 35.9643L34.2251 35.675L34.5262 37.1119C34.8669 38.7378 34.1034 40.3812 32.625 41.2015L32.5358 41.2512C31.0584 42.0704 29.1927 41.8844 27.8988 40.7884L26.754 39.8191L26.2673 41.2083C25.7157 42.7816 24.1988 43.8376 22.3898 43.8376C20.6813 43.8376 19.1643 42.7816 18.6138 41.2093L18.127 39.8201L16.9822 40.7894C15.6884 41.8863 13.8247 42.0734 12.3453 41.2521L12.2561 41.2024C10.7777 40.3822 10.0141 38.7388 10.3548 37.1129L10.656 35.676L9.16035 35.9653C7.46497 36.2946 5.75742 35.5591 4.90364 34.1388L4.85193 34.053C3.99815 32.6327 4.19182 30.8422 5.33357 29.5982L6.34249 28.4983L4.89654 28.0307C3.25997 27.5008 2.16081 26.0434 2.16081 24.4029V24.3045C2.16081 22.664 3.25997 21.2067 4.89654 20.6777L6.34249 20.2101L5.33357 19.1103C4.19283 17.8662 3.99916 16.0757 4.85193 14.6554L4.90364 14.5697C5.75742 13.1493 7.47207 12.4138 9.16035 12.7431L10.656 13.0324L10.3548 11.5955C10.0131 9.96866 10.7777 8.32524 12.2561 7.50597L12.3453 7.45628C13.8247 6.63506 15.6874 6.8221 16.9822 7.91901L18.127 8.88831L18.6138 7.49915C19.1654 5.92684 20.6823 4.87084 22.4912 4.87084C24.1998 4.87084 25.7167 5.92684 26.2673 7.49915L26.754 8.88831L27.8988 7.91901C29.1957 6.82405 31.0594 6.63701 32.5358 7.45628L32.5804 7.48161V12.2151C29.7189 10.0145 26.1406 8.76752 22.4405 8.76752C13.4951 8.76752 6.21675 15.7601 6.21675 24.3542C6.21675 32.9483 13.4951 39.9409 22.4405 39.9409C31.0442 39.9409 38.0853 33.4685 38.6126 25.3284H42.5885C42.2619 26.5704 41.3037 27.604 39.9845 28.0297ZM60.972 22.4059C60.972 22.9436 60.5178 23.38 59.958 23.38H35.6224C35.0626 23.38 34.6084 22.9436 34.6084 22.4059V2.9225C34.6084 2.38476 35.0626 1.94834 35.6224 1.94834H40.6923V7.79335H54.8881V1.94834H59.958C60.5178 1.94834 60.972 2.38476 60.972 2.9225V22.4059Z" fill="#BD222C"/>
<path d="M52.8601 19.4836H54.8881V21.4319H52.8601V19.4836Z" fill="#BD222C"/>
<path d="M56.9161 19.4836H58.9441V21.4319H56.9161V19.4836Z" fill="#BD222C"/>
<path d="M48.8042 19.4836H50.8322V21.4319H48.8042V19.4836Z" fill="#BD222C"/>
<path d="M48.8042 15.5868H58.9441V17.5351H48.8042V15.5868Z" fill="#BD222C"/>
<path d="M20.4124 28.8219L18.0873 26.5881L16.6536 27.9656L20.4124 31.5769L30.2552 22.1205L28.8214 20.743L20.4124 28.8219Z" fill="#BD222C"/>
</svg>
