<svg width="20" height="20" viewBox="0 0 20 20" fill="none" xmlns="http://www.w3.org/2000/svg">
<g clip-path="url(#clip0)">
<path d="M13.75 0H6.25C2.79875 0 0 2.76192 0 6.16776V13.5691C0 16.9749 2.79875 19.7368 6.25 19.7368H13.75C17.2013 19.7368 20 16.9749 20 13.5691V6.16776C20 2.76192 17.2013 0 13.75 0ZM18.125 13.5691C18.125 15.9498 16.1625 17.8865 13.75 17.8865H6.25C3.8375 17.8865 1.875 15.9498 1.875 13.5691V6.16776C1.875 3.78701 3.8375 1.85033 6.25 1.85033H13.75C16.1625 1.85033 18.125 3.78701 18.125 6.16776V13.5691Z" fill="black"/>
<path d="M10 5.15796C7.23875 5.15796 5 7.36725 5 10.0922C5 12.8171 7.23875 15.0264 10 15.0264C12.7613 15.0264 15 12.8171 15 10.0922C15 7.36725 12.7613 5.15796 10 5.15796ZM10 13.1761C8.2775 13.1761 6.875 11.792 6.875 10.0922C6.875 8.3911 8.2775 7.00829 10 7.00829C11.7225 7.00829 13.125 8.3911 13.125 10.0922C13.125 11.792 11.7225 13.1761 10 13.1761Z" fill="black"/>
<path d="M15.375 5.44509C15.743 5.44509 16.0412 5.15073 16.0412 4.78761C16.0412 4.42449 15.743 4.13013 15.375 4.13013C15.007 4.13013 14.7087 4.42449 14.7087 4.78761C14.7087 5.15073 15.007 5.44509 15.375 5.44509Z" fill="black"/>
</g>
<defs>
<clipPath id="clip0">
<rect y="0.223633" width="20" height="19.7368" fill="white"/>
</clipPath>
</defs>
</svg>
