<svg width="28" height="28" viewBox="0 0 28 28" fill="none" xmlns="http://www.w3.org/2000/svg">
<path d="M15.662 14.8696C15.2765 14.4841 14.7642 14.2715 14.2191 14.2715C13.674 14.2715 13.1617 14.4841 12.7758 14.8696L11.9183 15.7279C11.581 15.4256 11.2607 15.1041 10.958 14.7667L11.8163 13.9079C12.6117 13.1121 12.6117 11.8171 11.8163 11.0209L10.5327 9.73681C10.2501 9.45331 9.85984 9.32162 9.4639 9.37806C9.06709 9.43318 8.72847 9.66593 8.53422 10.0159L7.64565 11.6167C7.33809 12.1706 7.37091 12.8382 7.73141 13.3597L8.52022 14.499C8.70178 14.7632 8.89297 15.0201 9.08853 15.262C9.77322 16.1278 10.5585 16.9131 11.4152 17.5921C11.42 17.5961 11.4243 17.6 11.4292 17.6035C11.6746 17.8012 11.9292 17.9907 12.1821 18.1639L13.3231 18.9554C13.607 19.1522 13.9343 19.252 14.2633 19.252C14.5385 19.252 14.8145 19.1824 15.0665 19.042L16.6669 18.1526C17.0165 17.9583 17.2488 17.6192 17.3039 17.2229C17.359 16.8269 17.2287 16.4376 16.9465 16.1549L15.662 14.8696ZM10.5782 12.6707L9.87165 13.3777L9.20447 12.4139L9.75047 11.4299L10.5782 12.2586C10.692 12.3719 10.692 12.5569 10.5782 12.6707ZM14.2698 17.4827L13.3065 16.8151L14.0139 16.1072C14.0878 16.0329 14.1745 16.0219 14.2191 16.0219C14.2637 16.0219 14.3503 16.0329 14.4243 16.1072L15.2533 16.9367L14.2698 17.4827Z" fill="black"/>
<path d="M18.375 3.5H9.625C6.2475 3.5 3.5 6.2475 3.5 9.625V16.1875C3.5 19.075 5.55844 21.5548 8.3125 22.1642V23.625C8.3125 23.9282 8.46956 24.2099 8.72769 24.3692C8.86812 24.4558 9.02738 24.5 9.1875 24.5C9.32137 24.5 9.45525 24.4694 9.57906 24.4077L13.7694 22.3125H18.375C21.7525 22.3125 24.5 19.565 24.5 16.1875V9.625C24.5 6.2475 21.7525 3.5 18.375 3.5ZM9.25925 20.5481C7.01137 20.3617 5.25 18.4463 5.25 16.1875V9.625C5.25 7.21263 7.21263 5.25 9.625 5.25H18.375C20.7874 5.25 22.75 7.21263 22.75 9.625V16.1875C22.75 18.5999 20.7874 20.5625 18.375 20.5625H13.5625C13.5542 20.5625 13.5468 20.5647 13.5384 20.5651C13.5052 20.566 13.4724 20.5704 13.4391 20.5752C13.4138 20.5787 13.3879 20.5817 13.3634 20.5879C13.3359 20.5944 13.3092 20.6041 13.2821 20.6133C13.2527 20.6233 13.2239 20.6329 13.1963 20.6461C13.188 20.65 13.1797 20.6513 13.1714 20.6557L10.0625 22.2092V21.42C10.0612 21.3347 10.0459 21.1159 9.89275 20.9072C9.667 20.5997 9.31962 20.5546 9.25925 20.5481Z" fill="black"/>
<path d="M13.6937 11.3925C14.5447 11.4958 15.2013 12.163 15.291 13.0143C15.3383 13.4637 15.718 13.7975 16.1599 13.7975C16.1905 13.7975 16.2216 13.7957 16.2526 13.7927C16.733 13.7419 17.0817 13.311 17.031 12.8306C16.8551 11.1633 15.5697 9.85778 13.9046 9.65522C13.4255 9.59791 12.9885 9.93828 12.9303 10.4182C12.8721 10.8982 13.2142 11.3339 13.6937 11.3925Z" fill="black"/>
<path d="M14.2919 6.5696C13.8111 6.50835 13.3753 6.85047 13.3158 7.32997C13.2563 7.80947 13.5971 8.24653 14.0766 8.3056C16.3617 8.58866 18.1314 10.3842 18.3803 12.6714C18.4289 13.1198 18.8082 13.4519 19.2492 13.4519C19.2807 13.4519 19.3131 13.4502 19.345 13.4467C19.8254 13.3946 20.1728 12.9628 20.1203 12.4824C19.7829 9.38403 17.3863 6.95285 14.2919 6.5696Z" fill="black"/>
</svg>
